<svg width="75" height="64" viewBox="0 0 75 64" fill="none" xmlns="http://www.w3.org/2000/svg">
<g clip-path="url(#clip0)">
<path fill-rule="evenodd" clip-rule="evenodd" d="M27.2727 64H57.9545C60.7841 64 63.2045 62.4 64.2273 60.096L74.5227 37.536C74.8295 36.8 75 36.032 75 35.2V28.8C75 25.28 71.9318 22.4 68.1818 22.4H46.6705L49.9091 7.776L50.0114 6.752C50.0114 5.44 49.4318 4.224 48.5114 3.36L44.8977 0L22.4318 21.088C21.2045 22.24 20.4545 23.84 20.4545 25.6V57.6C20.4545 61.12 23.5227 64 27.2727 64ZM27.2727 25.6L42.0682 11.712L37.5 28.8H68.1818V35.2L57.9545 57.6H27.2727V25.6ZM0 25.6H13.6364V64H0V25.6Z" fill="#FF4B34"/>
</g>
<defs>
<clipPath id="clip0">
<rect width="75" height="64" fill="white"/>
</clipPath>
</defs>
</svg>
